<?xml version="1.0" standalone="no"?>
<!DOCTYPE svg PUBLIC "-//W3C//DTD SVG 20010904//EN"
 "http://www.w3.org/TR/2001/REC-SVG-20010904/DTD/svg10.dtd">
<svg version="1.0" xmlns="http://www.w3.org/2000/svg"
 width="1004.000000pt" height="1004.000000pt" viewBox="0 0 1004.000000 1004.000000"
 preserveAspectRatio="xMidYMid meet">
<metadata>
Created by potrace 1.11, written by Peter Selinger 2001-2013
</metadata>
<g transform="translate(0.000000,1004.000000) scale(0.100000,-0.100000)"
fill="#000000" stroke="none">
<path d="M4930 9355 c-48 -15 -3491 -1997 -3550 -2044 -52 -42 -108 -128 -131
-201 -19 -64 -19 -98 -17 -2111 l3 -2046 43 -86 c28 -58 56 -98 86 -124 24
-21 410 -249 857 -507 448 -258 1208 -697 1689 -975 481 -278 910 -523 954
-546 73 -37 84 -40 177 -43 72 -3 112 0 146 12 33 11 1067 601 1273 726 34 21
1927 1111 2075 1194 236 135 301 205 331 363 21 112 21 4004 -1 4106 -22 105
-74 188 -158 250 -17 14 -453 268 -967 564 -514 297 -1288 744 -1720 993 -432
250 -807 462 -835 472 -61 21 -190 23 -255 3z m480 -2307 c167 -519 319 -991
338 -1050 l34 -108 1061 -2 1062 -3 -610 -434 c-336 -239 -724 -516 -862 -614
-139 -99 -253 -184 -253 -188 0 -4 148 -464 330 -1021 181 -556 328 -1013 327
-1014 -1 -1 -391 281 -867 627 -475 346 -869 628 -875 625 -7 -2 -295 -210
-641 -462 -346 -251 -719 -523 -829 -602 -110 -80 -215 -156 -232 -170 l-33
-24 14 43 c15 49 142 442 433 1334 108 330 200 615 206 633 6 20 7 36 1 41 -5
5 -236 170 -514 368 -278 197 -663 471 -856 608 l-351 250 1063 3 1062 2 44
138 c262 819 634 1962 638 1962 3 0 143 -424 310 -942z"/>
</g>
</svg>
