<?xml version="1.0" standalone="no"?>
<!DOCTYPE svg PUBLIC "-//W3C//DTD SVG 20010904//EN"
 "http://www.w3.org/TR/2001/REC-SVG-20010904/DTD/svg10.dtd">
<svg version="1.0" xmlns="http://www.w3.org/2000/svg"
 width="1004.000000pt" height="1004.000000pt" viewBox="0 0 1004.000000 1004.000000"
 preserveAspectRatio="xMidYMid meet">
<metadata>
Created by potrace 1.11, written by Peter Selinger 2001-2013
</metadata>
<g transform="translate(0.000000,1004.000000) scale(0.100000,-0.100000)"
fill="#000000" stroke="none">
<path d="M4929 9351 c-30 -10 -195 -98 -365 -196 -170 -99 -419 -242 -554
-320 -135 -78 -715 -413 -1290 -745 -575 -332 -1106 -638 -1180 -681 -199
-114 -274 -198 -300 -338 -14 -78 -14 -4017 1 -4097 14 -78 61 -164 118 -217
25 -24 89 -68 141 -98 108 -64 1948 -1126 2085 -1204 50 -28 353 -204 675
-390 322 -186 612 -349 644 -363 80 -33 194 -38 273 -14 34 11 269 140 558
307 514 297 675 389 1140 657 149 86 374 216 500 289 540 311 806 464 1060
610 180 103 285 169 316 200 61 60 104 145 118 236 15 98 16 3969 0 4063 -15
96 -59 179 -127 240 -41 38 -250 164 -767 462 -1257 724 -1388 800 -1505 868
-701 408 -1254 721 -1299 734 -71 21 -172 20 -242 -3z m476 -2288 c164 -511
316 -983 338 -1050 l38 -123 1062 -2 1062 -3 -862 -614 c-475 -337 -863 -617
-863 -622 0 -5 148 -465 330 -1021 181 -557 328 -1013 327 -1014 -1 -1 -391
281 -867 627 -475 346 -869 628 -875 625 -8 -3 -1685 -1218 -1722 -1248 -15
-12 -20 -28 126 422 62 190 205 627 317 972 112 345 204 631 204 636 0 4 -91
73 -202 152 -112 80 -311 221 -443 315 -132 94 -413 294 -625 445 -212 150
-403 286 -424 302 l-40 28 1066 0 1067 0 44 138 c205 646 633 1962 637 1962 3
0 140 -417 305 -927z"/>
</g>
</svg>
